<svg width="1250" height="1000" xmlns="http://www.w3.org/2000/svg" version="1.1">


<!-- internal style sheet -->
<style type="text/css"><![CDATA[
 rect.background{fill:white}
 rect{fill:none; stroke:rgb(25,25,25); stroke-width:2}
 text{font-family:Helvetica; text-anchor:middle; fill:rgb(25,25,25)}
 line{stroke:rgb(25,25,25); stroke-width:4}
 path{fill:none; stroke:rgb(25,25,25); stroke-width:2}
 circle{fill:white; stroke:black; stroke-width:2}

 path.p0{fill:rgb(0,102,255); stroke:rgb(25,25,25); stroke-width:2}
 path.ps0{fill:rgb(0,77,191); stroke:rgb(20,20,20); stroke-width:2}
 rect.r0{fill:rgb(0,102,255); stroke:rgb(25,25,25); stroke-width:2}
]]></style>

 <rect class="background" width="1250" height="1000"/>
  <!-- cells -->
  <path class="p0" d="M 100 920 L 175 920 L 175 827 L 100 827 L 100 920"/>
  <line x1="100" y1="920" x2="100" y2="827"/>
  <line x1="100" y1="920" x2="175" y2="920"/>
  <path class="p0" d="M 175 920 L 250 920 L 250 827 L 175 827 L 175 920"/>
  <line x1="175" y1="920" x2="250" y2="920"/>
  <path class="p0" d="M 250 920 L 325 920 L 325 827 L 250 827 L 250 920"/>
  <line x1="250" y1="920" x2="325" y2="920"/>
  <path class="p0" d="M 325 920 L 400 920 L 400 827 L 325 827 L 325 920"/>
  <line x1="325" y1="920" x2="400" y2="920"/>
  <path class="p0" d="M 400 920 L 475 920 L 475 827 L 400 827 L 400 920"/>
  <line x1="400" y1="920" x2="475" y2="920"/>
  <path class="p0" d="M 475 920 L 550 920 L 550 827 L 475 827 L 475 920"/>
  <line x1="475" y1="920" x2="550" y2="920"/>
  <path class="p0" d="M 550 920 L 625 920 L 625 827 L 550 827 L 550 920"/>
  <line x1="550" y1="920" x2="625" y2="920"/>
  <path class="p0" d="M 625 920 L 700 920 L 700 827 L 625 827 L 625 920"/>
  <line x1="625" y1="920" x2="700" y2="920"/>
  <path class="p0" d="M 700 920 L 775 920 L 775 827 L 700 827 L 700 920"/>
  <line x1="700" y1="920" x2="775" y2="920"/>
  <path class="p0" d="M 775 920 L 850 920 L 850 827 L 775 827 L 775 920"/>
  <line x1="775" y1="920" x2="850" y2="920"/>
  <path class="p0" d="M 850 920 L 925 920 L 925 827 L 850 827 L 850 920"/>
  <line x1="850" y1="920" x2="925" y2="920"/>
  <path class="p0" d="M 925 920 L 1000 920 L 1000 827 L 925 827 L 925 920"/>
  <line x1="925" y1="920" x2="1000" y2="920"/>
  <path class="p0" d="M 1000 920 L 1075 920 L 1075 827 L 1000 827 L 1000 920"/>
  <line x1="1000" y1="920" x2="1075" y2="920"/>
  <path class="p0" d="M 1075 920 L 1150 920 L 1150 827 L 1075 827 L 1075 920"/>
  <line x1="1150" y1="920" x2="1150" y2="827"/>
  <line x1="1075" y1="920" x2="1150" y2="920"/>
  <path class="p0" d="M 100 827 L 175 827 L 175 733 L 100 733 L 100 827"/>
  <line x1="100" y1="827" x2="100" y2="733"/>
  <path class="p0" d="M 175 827 L 250 827 L 250 733 L 175 733 L 175 827"/>
  <path class="p0" d="M 250 827 L 325 827 L 325 733 L 250 733 L 250 827"/>
  <path class="p0" d="M 325 827 L 400 827 L 400 733 L 325 733 L 325 827"/>
  <path class="p0" d="M 400 827 L 475 827 L 475 733 L 400 733 L 400 827"/>
  <path class="p0" d="M 475 827 L 550 827 L 550 733 L 475 733 L 475 827"/>
  <path class="p0" d="M 550 827 L 625 827 L 625 733 L 550 733 L 550 827"/>
  <path class="p0" d="M 625 827 L 700 827 L 700 733 L 625 733 L 625 827"/>
  <path class="p0" d="M 700 827 L 775 827 L 775 733 L 700 733 L 700 827"/>
  <path class="p0" d="M 775 827 L 850 827 L 850 733 L 775 733 L 775 827"/>
  <path class="p0" d="M 850 827 L 925 827 L 925 733 L 850 733 L 850 827"/>
  <path class="p0" d="M 925 827 L 1000 827 L 1000 733 L 925 733 L 925 827"/>
  <path class="p0" d="M 1000 827 L 1075 827 L 1075 733 L 1000 733 L 1000 827"/>
  <path class="p0" d="M 1075 827 L 1150 827 L 1150 733 L 1075 733 L 1075 827"/>
  <line x1="1150" y1="827" x2="1150" y2="733"/>
  <path class="p0" d="M 100 733 L 175 733 L 175 640 L 100 640 L 100 733"/>
  <line x1="100" y1="733" x2="100" y2="640"/>
  <path class="p0" d="M 175 733 L 250 733 L 250 640 L 175 640 L 175 733"/>
  <path class="p0" d="M 250 733 L 325 733 L 325 640 L 250 640 L 250 733"/>
  <path class="p0" d="M 325 733 L 400 733 L 400 640 L 325 640 L 325 733"/>
  <path class="p0" d="M 400 733 L 475 733 L 475 640 L 400 640 L 400 733"/>
  <path class="p0" d="M 475 733 L 550 733 L 550 640 L 475 640 L 475 733"/>
  <path class="p0" d="M 550 733 L 625 733 L 625 640 L 550 640 L 550 733"/>
  <path class="p0" d="M 625 733 L 700 733 L 700 640 L 625 640 L 625 733"/>
  <path class="p0" d="M 700 733 L 775 733 L 775 640 L 700 640 L 700 733"/>
  <path class="p0" d="M 775 733 L 850 733 L 850 640 L 775 640 L 775 733"/>
  <path class="p0" d="M 850 733 L 925 733 L 925 640 L 850 640 L 850 733"/>
  <path class="p0" d="M 925 733 L 1000 733 L 1000 640 L 925 640 L 925 733"/>
  <path class="p0" d="M 1000 733 L 1075 733 L 1075 640 L 1000 640 L 1000 733"/>
  <path class="p0" d="M 1075 733 L 1150 733 L 1150 640 L 1075 640 L 1075 733"/>
  <line x1="1150" y1="733" x2="1150" y2="640"/>
  <path class="p0" d="M 100 640 L 175 640 L 175 547 L 100 547 L 100 640"/>
  <line x1="100" y1="640" x2="100" y2="547"/>
  <path class="p0" d="M 175 640 L 250 640 L 250 547 L 175 547 L 175 640"/>
  <path class="p0" d="M 250 640 L 325 640 L 325 547 L 250 547 L 250 640"/>
  <path class="p0" d="M 325 640 L 400 640 L 400 547 L 325 547 L 325 640"/>
  <path class="p0" d="M 400 640 L 475 640 L 475 547 L 400 547 L 400 640"/>
  <path class="p0" d="M 475 640 L 550 640 L 550 547 L 475 547 L 475 640"/>
  <path class="p0" d="M 550 640 L 625 640 L 625 547 L 550 547 L 550 640"/>
  <path class="p0" d="M 625 640 L 700 640 L 700 547 L 625 547 L 625 640"/>
  <path class="p0" d="M 700 640 L 775 640 L 775 547 L 700 547 L 700 640"/>
  <path class="p0" d="M 775 640 L 850 640 L 850 547 L 775 547 L 775 640"/>
  <path class="p0" d="M 850 640 L 925 640 L 925 547 L 850 547 L 850 640"/>
  <path class="p0" d="M 925 640 L 1000 640 L 1000 547 L 925 547 L 925 640"/>
  <path class="p0" d="M 1000 640 L 1075 640 L 1075 547 L 1000 547 L 1000 640"/>
  <path class="p0" d="M 1075 640 L 1150 640 L 1150 547 L 1075 547 L 1075 640"/>
  <line x1="1150" y1="640" x2="1150" y2="547"/>
  <path class="p0" d="M 100 547 L 175 547 L 175 453 L 100 453 L 100 547"/>
  <line x1="100" y1="547" x2="100" y2="453"/>
  <path class="p0" d="M 175 547 L 250 547 L 250 453 L 175 453 L 175 547"/>
  <path class="p0" d="M 250 547 L 325 547 L 325 453 L 250 453 L 250 547"/>
  <path class="p0" d="M 325 547 L 400 547 L 400 453 L 325 453 L 325 547"/>
  <path class="p0" d="M 400 547 L 475 547 L 475 453 L 400 453 L 400 547"/>
  <path class="p0" d="M 475 547 L 550 547 L 550 453 L 475 453 L 475 547"/>
  <path class="p0" d="M 550 547 L 625 547 L 625 453 L 550 453 L 550 547"/>
  <path class="p0" d="M 625 547 L 700 547 L 700 453 L 625 453 L 625 547"/>
  <path class="p0" d="M 700 547 L 775 547 L 775 453 L 700 453 L 700 547"/>
  <path class="p0" d="M 775 547 L 850 547 L 850 453 L 775 453 L 775 547"/>
  <path class="p0" d="M 850 547 L 925 547 L 925 453 L 850 453 L 850 547"/>
  <path class="p0" d="M 925 547 L 1000 547 L 1000 453 L 925 453 L 925 547"/>
  <path class="p0" d="M 1000 547 L 1075 547 L 1075 453 L 1000 453 L 1000 547"/>
  <path class="p0" d="M 1075 547 L 1150 547 L 1150 453 L 1075 453 L 1075 547"/>
  <line x1="1150" y1="547" x2="1150" y2="453"/>
  <path class="p0" d="M 100 453 L 175 453 L 175 360 L 100 360 L 100 453"/>
  <line x1="100" y1="453" x2="100" y2="360"/>
  <path class="p0" d="M 175 453 L 250 453 L 250 360 L 175 360 L 175 453"/>
  <path class="p0" d="M 250 453 L 325 453 L 325 360 L 250 360 L 250 453"/>
  <path class="p0" d="M 325 453 L 400 453 L 400 360 L 325 360 L 325 453"/>
  <path class="p0" d="M 400 453 L 475 453 L 475 360 L 400 360 L 400 453"/>
  <path class="p0" d="M 475 453 L 550 453 L 550 360 L 475 360 L 475 453"/>
  <path class="p0" d="M 550 453 L 625 453 L 625 360 L 550 360 L 550 453"/>
  <path class="p0" d="M 625 453 L 700 453 L 700 360 L 625 360 L 625 453"/>
  <path class="p0" d="M 700 453 L 775 453 L 775 360 L 700 360 L 700 453"/>
  <path class="p0" d="M 775 453 L 850 453 L 850 360 L 775 360 L 775 453"/>
  <path class="p0" d="M 850 453 L 925 453 L 925 360 L 850 360 L 850 453"/>
  <path class="p0" d="M 925 453 L 1000 453 L 1000 360 L 925 360 L 925 453"/>
  <path class="p0" d="M 1000 453 L 1075 453 L 1075 360 L 1000 360 L 1000 453"/>
  <path class="p0" d="M 1075 453 L 1150 453 L 1150 360 L 1075 360 L 1075 453"/>
  <line x1="1150" y1="453" x2="1150" y2="360"/>
  <path class="p0" d="M 100 360 L 175 360 L 175 267 L 100 267 L 100 360"/>
  <line x1="100" y1="360" x2="100" y2="267"/>
  <path class="p0" d="M 175 360 L 250 360 L 250 267 L 175 267 L 175 360"/>
  <path class="p0" d="M 250 360 L 325 360 L 325 267 L 250 267 L 250 360"/>
  <path class="p0" d="M 325 360 L 400 360 L 400 267 L 325 267 L 325 360"/>
  <path class="p0" d="M 400 360 L 475 360 L 475 267 L 400 267 L 400 360"/>
  <path class="p0" d="M 475 360 L 550 360 L 550 267 L 475 267 L 475 360"/>
  <path class="p0" d="M 550 360 L 625 360 L 625 267 L 550 267 L 550 360"/>
  <path class="p0" d="M 625 360 L 700 360 L 700 267 L 625 267 L 625 360"/>
  <path class="p0" d="M 700 360 L 775 360 L 775 267 L 700 267 L 700 360"/>
  <path class="p0" d="M 775 360 L 850 360 L 850 267 L 775 267 L 775 360"/>
  <path class="p0" d="M 850 360 L 925 360 L 925 267 L 850 267 L 850 360"/>
  <path class="p0" d="M 925 360 L 1000 360 L 1000 267 L 925 267 L 925 360"/>
  <path class="p0" d="M 1000 360 L 1075 360 L 1075 267 L 1000 267 L 1000 360"/>
  <path class="p0" d="M 1075 360 L 1150 360 L 1150 267 L 1075 267 L 1075 360"/>
  <line x1="1150" y1="360" x2="1150" y2="267"/>
  <path class="p0" d="M 100 267 L 175 267 L 175 173 L 100 173 L 100 267"/>
  <line x1="100" y1="267" x2="100" y2="173"/>
  <path class="p0" d="M 175 267 L 250 267 L 250 173 L 175 173 L 175 267"/>
  <path class="p0" d="M 250 267 L 325 267 L 325 173 L 250 173 L 250 267"/>
  <path class="p0" d="M 325 267 L 400 267 L 400 173 L 325 173 L 325 267"/>
  <path class="p0" d="M 400 267 L 475 267 L 475 173 L 400 173 L 400 267"/>
  <path class="p0" d="M 475 267 L 550 267 L 550 173 L 475 173 L 475 267"/>
  <path class="p0" d="M 550 267 L 625 267 L 625 173 L 550 173 L 550 267"/>
  <path class="p0" d="M 625 267 L 700 267 L 700 173 L 625 173 L 625 267"/>
  <path class="p0" d="M 700 267 L 775 267 L 775 173 L 700 173 L 700 267"/>
  <path class="p0" d="M 775 267 L 850 267 L 850 173 L 775 173 L 775 267"/>
  <path class="p0" d="M 850 267 L 925 267 L 925 173 L 850 173 L 850 267"/>
  <path class="p0" d="M 925 267 L 1000 267 L 1000 173 L 925 173 L 925 267"/>
  <path class="p0" d="M 1000 267 L 1075 267 L 1075 173 L 1000 173 L 1000 267"/>
  <path class="p0" d="M 1075 267 L 1150 267 L 1150 173 L 1075 173 L 1075 267"/>
  <line x1="1150" y1="267" x2="1150" y2="173"/>
  <path class="p0" d="M 100 173 L 175 173 L 175 80 L 100 80 L 100 173"/>
  <line x1="100" y1="173" x2="100" y2="80"/>
  <line x1="100" y1="80" x2="175" y2="80"/>
  <path class="p0" d="M 175 173 L 250 173 L 250 80 L 175 80 L 175 173"/>
  <line x1="175" y1="80" x2="250" y2="80"/>
  <path class="p0" d="M 250 173 L 325 173 L 325 80 L 250 80 L 250 173"/>
  <line x1="250" y1="80" x2="325" y2="80"/>
  <path class="p0" d="M 325 173 L 400 173 L 400 80 L 325 80 L 325 173"/>
  <line x1="325" y1="80" x2="400" y2="80"/>
  <path class="p0" d="M 400 173 L 475 173 L 475 80 L 400 80 L 400 173"/>
  <line x1="400" y1="80" x2="475" y2="80"/>
  <path class="p0" d="M 475 173 L 550 173 L 550 80 L 475 80 L 475 173"/>
  <line x1="475" y1="80" x2="550" y2="80"/>
  <path class="p0" d="M 550 173 L 625 173 L 625 80 L 550 80 L 550 173"/>
  <line x1="550" y1="80" x2="625" y2="80"/>
  <path class="p0" d="M 625 173 L 700 173 L 700 80 L 625 80 L 625 173"/>
  <line x1="625" y1="80" x2="700" y2="80"/>
  <path class="p0" d="M 700 173 L 775 173 L 775 80 L 700 80 L 700 173"/>
  <line x1="700" y1="80" x2="775" y2="80"/>
  <path class="p0" d="M 775 173 L 850 173 L 850 80 L 775 80 L 775 173"/>
  <line x1="775" y1="80" x2="850" y2="80"/>
  <path class="p0" d="M 850 173 L 925 173 L 925 80 L 850 80 L 850 173"/>
  <line x1="850" y1="80" x2="925" y2="80"/>
  <path class="p0" d="M 925 173 L 1000 173 L 1000 80 L 925 80 L 925 173"/>
  <line x1="925" y1="80" x2="1000" y2="80"/>
  <path class="p0" d="M 1000 173 L 1075 173 L 1075 80 L 1000 80 L 1000 173"/>
  <line x1="1000" y1="80" x2="1075" y2="80"/>
  <path class="p0" d="M 1075 173 L 1150 173 L 1150 80 L 1075 80 L 1075 173"/>
  <line x1="1150" y1="173" x2="1150" y2="80"/>
  <line x1="1075" y1="80" x2="1150" y2="80"/>

</svg>